<svg width="1440" height="393" viewBox="0 0 1440 393" fill="none" xmlns="http://www.w3.org/2000/svg">
<mask id="mask0_1354_1657" style="mask-type:alpha" maskUnits="userSpaceOnUse" x="-7" y="0" width="1454" height="393">
<rect x="20.4805" y="0.65625" width="1440" height="193" transform="rotate(8.01471 20.4805 0.65625)" fill="url(#paint0_linear_1354_1657)"/>
</mask>
<g mask="url(#mask0_1354_1657)">
<g filter="url(#filter0_d_1354_1657)">
<path d="M-6.22334 68.4948C-6.22334 68.4948 267.822 226.372 718.329 207.74C1168.83 189.107 1449.57 299.453 1449.57 299.453" stroke="#8E9AFF" stroke-width="0.75"/>
</g>
<g filter="url(#filter1_d_1354_1657)">
<path d="M-9.45617 87.5223C-9.45617 87.5223 268.628 238.172 718.492 207.753C1168.36 177.334 1451.88 280.293 1451.88 280.293" stroke="#4253E7" stroke-width="0.75"/>
</g>
<path d="M357.016 178.173C296.402 169.161 242.526 157.549 196.023 145.322" stroke="url(#paint1_linear_1354_1657)" stroke-width="0.75"/>
<path d="M1181.14 206.348C1125.66 198.964 1062.56 192.884 992.618 189.696" stroke="url(#paint2_linear_1354_1657)" stroke-width="0.75"/>
<g filter="url(#filter2_d_1354_1657)">
<path d="M-9.93468 82.6972C-9.93468 82.6972 268.15 233.347 718.014 202.928C1167.88 172.509 1451.41 275.468 1451.41 275.468" stroke="#4253E7" stroke-width="0.75"/>
</g>
<g filter="url(#filter3_d_1354_1657)">
<path d="M-13.9637 102.485C-13.9637 102.485 266.708 248.259 715.972 209.993C1165.24 171.728 1450.52 269.723 1450.52 269.723" stroke="#537FFF" stroke-width="0.75"/>
</g>
<path d="M884.725 217.236C843.869 217.848 801.163 219.538 756.734 222.548" stroke="url(#paint3_linear_1354_1657)" stroke-width="0.75"/>
<g filter="url(#filter4_d_1354_1657)">
<path d="M-15.5799 103.296C-15.5799 103.296 267.593 244.149 716.121 198.048C1164.65 151.948 1451.6 244.949 1451.6 244.949" stroke="#4253E7" stroke-width="0.75"/>
</g>
<path d="M565.292 190.773C477.61 188.963 398.497 180.602 329.019 169.008" stroke="url(#paint4_linear_1354_1657)" stroke-opacity="0.4" stroke-width="0.75" stroke-linecap="round"/>
<path d="M-6.22334 68.4948C-6.22334 68.4948 267.822 226.372 718.329 207.74C1168.83 189.107 1449.57 299.453 1449.57 299.453" stroke="#8E9AFF" stroke-width="0.75"/>
<path d="M-9.45617 87.5223C-9.45617 87.5223 268.628 238.172 718.492 207.753C1168.36 177.334 1451.88 280.293 1451.88 280.293" stroke="#4253E7" stroke-width="0.75"/>
<path d="M357.016 178.173C296.402 169.161 242.526 157.549 196.023 145.322" stroke="url(#paint5_linear_1354_1657)" stroke-width="0.75"/>
<path d="M1181.14 206.348C1125.66 198.964 1062.56 192.884 992.618 189.696" stroke="url(#paint6_linear_1354_1657)" stroke-width="0.75"/>
<path d="M-9.93468 82.6972C-9.93468 82.6972 268.15 233.347 718.014 202.928C1167.88 172.509 1451.41 275.468 1451.41 275.468" stroke="#4253E7" stroke-width="0.75"/>
<path d="M-13.9657 102.484C-13.9657 102.484 266.706 248.258 715.97 209.992C1165.23 171.727 1450.52 269.722 1450.52 269.722" stroke="#537FFF" stroke-width="0.75"/>
<path d="M884.723 217.237C843.867 217.849 801.161 219.539 756.732 222.549" stroke="url(#paint7_linear_1354_1657)" stroke-width="0.75"/>
<path d="M-15.5799 103.296C-15.5799 103.296 267.593 244.149 716.121 198.048C1164.65 151.948 1451.6 244.949 1451.6 244.949" stroke="#4253E7" stroke-width="0.75"/>
<path d="M565.292 190.773C477.61 188.963 398.497 180.602 329.019 169.008" stroke="url(#paint8_linear_1354_1657)" stroke-opacity="0.4" stroke-width="0.75" stroke-linecap="round"/>
<circle cx="273.626" cy="157.536" r="1" transform="rotate(3.96495 273.626 157.536)" fill="#8793FF" fill-opacity="0.466667"/>
<circle cx="152.255" cy="173.18" r="1" transform="rotate(3.96495 152.255 173.18)" fill="#4253E7"/>
<circle cx="152.255" cy="173.18" r="1" transform="rotate(3.96495 152.255 173.18)" fill="#4253E7"/>
<circle cx="473.728" cy="228.041" r="0.5" transform="rotate(3.96495 473.728 228.041)" fill="white" fill-opacity="0.6"/>
<g filter="url(#filter5_f_1354_1657)">
<circle cx="760.653" cy="217.355" r="1" transform="rotate(3.96495 760.653 217.355)" fill="#4253E7"/>
</g>
<circle cx="1226.9" cy="237.142" r="0.5" transform="rotate(3.96495 1226.9 237.142)" fill="white" fill-opacity="0.6"/>
<circle cx="1364.6" cy="210.099" r="1" transform="rotate(3.96495 1364.6 210.099)" fill="#4253E7"/>
<circle cx="1343.56" cy="195.608" r="1" transform="rotate(3.96495 1343.56 195.608)" fill="#4253E7"/>
<g filter="url(#filter6_f_1354_1657)">
<circle cx="1277.08" cy="279.713" r="0.5" transform="rotate(3.96495 1277.08 279.713)" fill="white" fill-opacity="0.8"/>
</g>
<g filter="url(#filter7_f_1354_1657)">
<circle cx="365.564" cy="154.386" r="0.5" transform="rotate(3.96495 365.564 154.386)" fill="#4253E7"/>
</g>
<circle cx="225.968" cy="194.328" r="1" transform="rotate(3.96495 225.968 194.328)" fill="#4253E7"/>
<g filter="url(#filter8_f_1354_1657)">
<circle cx="196.887" cy="122.145" r="1" transform="rotate(3.96495 196.887 122.145)" fill="#4253E7"/>
</g>
<circle cx="39.099" cy="149.8" r="0.5" transform="rotate(3.96495 39.099 149.8)" fill="white" fill-opacity="0.6"/>
<g filter="url(#filter9_f_1354_1657)">
<circle cx="93.3855" cy="96.9281" r="1" transform="rotate(3.96495 93.3855 96.9281)" fill="#8793FF"/>
</g>
</g>
<defs>
<filter id="filter0_d_1354_1657" x="-14.4072" y="60.1714" width="1472.11" height="247.63" filterUnits="userSpaceOnUse" color-interpolation-filters="sRGB">
<feFlood flood-opacity="0" result="BackgroundImageFix"/>
<feColorMatrix in="SourceAlpha" type="matrix" values="0 0 0 0 0 0 0 0 0 0 0 0 0 0 0 0 0 0 127 0" result="hardAlpha"/>
<feOffset/>
<feGaussianBlur stdDeviation="4"/>
<feComposite in2="hardAlpha" operator="out"/>
<feColorMatrix type="matrix" values="0 0 0 0 0.556863 0 0 0 0 0.603922 0 0 0 0 1 0 0 0 0.8 0"/>
<feBlend mode="normal" in2="BackgroundImageFix" result="effect1_dropShadow_1354_1657"/>
<feBlend mode="normal" in="SourceGraphic" in2="effect1_dropShadow_1354_1657" result="shape"/>
</filter>
<filter id="filter1_d_1354_1657" x="-14.6318" y="82.194" width="1471.64" height="203.451" filterUnits="userSpaceOnUse" color-interpolation-filters="sRGB">
<feFlood flood-opacity="0" result="BackgroundImageFix"/>
<feColorMatrix in="SourceAlpha" type="matrix" values="0 0 0 0 0 0 0 0 0 0 0 0 0 0 0 0 0 0 127 0" result="hardAlpha"/>
<feOffset/>
<feGaussianBlur stdDeviation="2.5"/>
<feComposite in2="hardAlpha" operator="out"/>
<feColorMatrix type="matrix" values="0 0 0 0 0.32549 0 0 0 0 0.466667 0 0 0 0 1 0 0 0 1 0"/>
<feBlend mode="normal" in2="BackgroundImageFix" result="effect1_dropShadow_1354_1657"/>
<feBlend mode="normal" in="SourceGraphic" in2="effect1_dropShadow_1354_1657" result="shape"/>
</filter>
<filter id="filter2_d_1354_1657" x="-15.1104" y="77.3689" width="1471.64" height="203.451" filterUnits="userSpaceOnUse" color-interpolation-filters="sRGB">
<feFlood flood-opacity="0" result="BackgroundImageFix"/>
<feColorMatrix in="SourceAlpha" type="matrix" values="0 0 0 0 0 0 0 0 0 0 0 0 0 0 0 0 0 0 127 0" result="hardAlpha"/>
<feOffset/>
<feGaussianBlur stdDeviation="2.5"/>
<feComposite in2="hardAlpha" operator="out"/>
<feColorMatrix type="matrix" values="0 0 0 0 0.32549 0 0 0 0 0.466667 0 0 0 0 1 0 0 0 1 0"/>
<feBlend mode="normal" in2="BackgroundImageFix" result="effect1_dropShadow_1354_1657"/>
<feBlend mode="normal" in="SourceGraphic" in2="effect1_dropShadow_1354_1657" result="shape"/>
</filter>
<filter id="filter3_d_1354_1657" x="-19.1338" y="97.1539" width="1474.77" height="177.923" filterUnits="userSpaceOnUse" color-interpolation-filters="sRGB">
<feFlood flood-opacity="0" result="BackgroundImageFix"/>
<feColorMatrix in="SourceAlpha" type="matrix" values="0 0 0 0 0 0 0 0 0 0 0 0 0 0 0 0 0 0 127 0" result="hardAlpha"/>
<feOffset/>
<feGaussianBlur stdDeviation="2.5"/>
<feComposite in2="hardAlpha" operator="out"/>
<feColorMatrix type="matrix" values="0 0 0 0 0.32549 0 0 0 0 0.466667 0 0 0 0 1 0 0 0 1 0"/>
<feBlend mode="normal" in2="BackgroundImageFix" result="effect1_dropShadow_1354_1657"/>
<feBlend mode="normal" in="SourceGraphic" in2="effect1_dropShadow_1354_1657" result="shape"/>
</filter>
<filter id="filter4_d_1354_1657" x="-20.7441" y="97.9613" width="1477.45" height="152.344" filterUnits="userSpaceOnUse" color-interpolation-filters="sRGB">
<feFlood flood-opacity="0" result="BackgroundImageFix"/>
<feColorMatrix in="SourceAlpha" type="matrix" values="0 0 0 0 0 0 0 0 0 0 0 0 0 0 0 0 0 0 127 0" result="hardAlpha"/>
<feOffset/>
<feGaussianBlur stdDeviation="2.5"/>
<feComposite in2="hardAlpha" operator="out"/>
<feColorMatrix type="matrix" values="0 0 0 0 0.32549 0 0 0 0 0.466667 0 0 0 0 1 0 0 0 1 0"/>
<feBlend mode="normal" in2="BackgroundImageFix" result="effect1_dropShadow_1354_1657"/>
<feBlend mode="normal" in="SourceGraphic" in2="effect1_dropShadow_1354_1657" result="shape"/>
</filter>
<filter id="filter5_f_1354_1657" x="757.653" y="214.355" width="6" height="6" filterUnits="userSpaceOnUse" color-interpolation-filters="sRGB">
<feFlood flood-opacity="0" result="BackgroundImageFix"/>
<feBlend mode="normal" in="SourceGraphic" in2="BackgroundImageFix" result="shape"/>
<feGaussianBlur stdDeviation="1" result="effect1_foregroundBlur_1354_1657"/>
</filter>
<filter id="filter6_f_1354_1657" x="1275.58" y="278.213" width="3" height="3.00012" filterUnits="userSpaceOnUse" color-interpolation-filters="sRGB">
<feFlood flood-opacity="0" result="BackgroundImageFix"/>
<feBlend mode="normal" in="SourceGraphic" in2="BackgroundImageFix" result="shape"/>
<feGaussianBlur stdDeviation="0.5" result="effect1_foregroundBlur_1354_1657"/>
</filter>
<filter id="filter7_f_1354_1657" x="363.063" y="151.886" width="5" height="5.00012" filterUnits="userSpaceOnUse" color-interpolation-filters="sRGB">
<feFlood flood-opacity="0" result="BackgroundImageFix"/>
<feBlend mode="normal" in="SourceGraphic" in2="BackgroundImageFix" result="shape"/>
<feGaussianBlur stdDeviation="1" result="effect1_foregroundBlur_1354_1657"/>
</filter>
<filter id="filter8_f_1354_1657" x="193.888" y="119.145" width="6" height="6" filterUnits="userSpaceOnUse" color-interpolation-filters="sRGB">
<feFlood flood-opacity="0" result="BackgroundImageFix"/>
<feBlend mode="normal" in="SourceGraphic" in2="BackgroundImageFix" result="shape"/>
<feGaussianBlur stdDeviation="1" result="effect1_foregroundBlur_1354_1657"/>
</filter>
<filter id="filter9_f_1354_1657" x="90.3857" y="93.9281" width="6" height="6" filterUnits="userSpaceOnUse" color-interpolation-filters="sRGB">
<feFlood flood-opacity="0" result="BackgroundImageFix"/>
<feBlend mode="normal" in="SourceGraphic" in2="BackgroundImageFix" result="shape"/>
<feGaussianBlur stdDeviation="1" result="effect1_foregroundBlur_1354_1657"/>
</filter>
<linearGradient id="paint0_linear_1354_1657" x1="20.4805" y1="97.1564" x2="1460.48" y2="97.1564" gradientUnits="userSpaceOnUse">
<stop stop-color="#D9D9D9" stop-opacity="0"/>
<stop offset="0.0520833" stop-color="#D9D9D9" stop-opacity="0.709677"/>
<stop offset="0.308407" stop-color="#D9D9D9"/>
<stop offset="0.377427" stop-color="#D9D9D9"/>
<stop offset="0.483755" stop-color="#D9D9D9"/>
<stop offset="0.563613" stop-color="#D9D9D9"/>
<stop offset="0.654793" stop-color="#D9D9D9"/>
<stop offset="0.932292" stop-color="#D9D9D9" stop-opacity="0.444444"/>
<stop offset="1" stop-color="#D9D9D9" stop-opacity="0"/>
</linearGradient>
<linearGradient id="paint1_linear_1354_1657" x1="350.915" y1="178.465" x2="275.767" y2="167.456" gradientUnits="userSpaceOnUse">
<stop stop-color="#4253E7"/>
<stop offset="1" stop-color="#4253E7" stop-opacity="0"/>
</linearGradient>
<linearGradient id="paint2_linear_1354_1657" x1="1170.92" y1="200.006" x2="1086.35" y2="202.06" gradientUnits="userSpaceOnUse">
<stop stop-color="#6B7AFF"/>
<stop offset="1" stop-color="#4253E7" stop-opacity="0"/>
</linearGradient>
<linearGradient id="paint3_linear_1354_1657" x1="885.71" y1="217.409" x2="819.606" y2="229.727" gradientUnits="userSpaceOnUse">
<stop stop-color="#537FFF"/>
<stop offset="1" stop-color="#537FFF" stop-opacity="0"/>
</linearGradient>
<linearGradient id="paint4_linear_1354_1657" x1="555.432" y1="189.084" x2="446.426" y2="185.423" gradientUnits="userSpaceOnUse">
<stop stop-color="#4253E7"/>
<stop offset="1" stop-color="#4253E7" stop-opacity="0"/>
</linearGradient>
<linearGradient id="paint5_linear_1354_1657" x1="350.915" y1="178.465" x2="275.767" y2="167.456" gradientUnits="userSpaceOnUse">
<stop stop-color="#4253E7"/>
<stop offset="1" stop-color="#4253E7" stop-opacity="0"/>
</linearGradient>
<linearGradient id="paint6_linear_1354_1657" x1="1170.92" y1="200.006" x2="1086.35" y2="202.06" gradientUnits="userSpaceOnUse">
<stop stop-color="#6B7AFF"/>
<stop offset="1" stop-color="#4253E7" stop-opacity="0"/>
</linearGradient>
<linearGradient id="paint7_linear_1354_1657" x1="885.708" y1="217.41" x2="819.604" y2="229.728" gradientUnits="userSpaceOnUse">
<stop stop-color="#537FFF"/>
<stop offset="1" stop-color="#537FFF" stop-opacity="0"/>
</linearGradient>
<linearGradient id="paint8_linear_1354_1657" x1="555.432" y1="189.084" x2="446.426" y2="185.423" gradientUnits="userSpaceOnUse">
<stop stop-color="#4253E7"/>
<stop offset="1" stop-color="#4253E7" stop-opacity="0"/>
</linearGradient>
</defs>
</svg>
